<?xml version="1.0" encoding="UTF-8" standalone="no"?>
<!-- Created with Inkscape (http://www.inkscape.org/) -->

<svg
   xmlns:dc="http://purl.org/dc/elements/1.1/"
   xmlns:cc="http://creativecommons.org/ns#"
   xmlns:rdf="http://www.w3.org/1999/02/22-rdf-syntax-ns#"
   xmlns:svg="http://www.w3.org/2000/svg"
   xmlns="http://www.w3.org/2000/svg"
   xmlns:sodipodi="http://sodipodi.sourceforge.net/DTD/sodipodi-0.dtd"
   xmlns:inkscape="http://www.inkscape.org/namespaces/inkscape"
   width="500"
   height="500"
   id="svg2"
   version="1.1"
   inkscape:version="0.48.1 "
   sodipodi:docname="004.svg">
  <defs
     id="defs4">
    <inkscape:path-effect
       effect="spiro"
       id="path-effect3867"
       is_visible="true" />
    <inkscape:path-effect
       effect="spiro"
       id="path-effect3863"
       is_visible="true" />
  </defs>
  <sodipodi:namedview
     id="base"
     pagecolor="#ffffff"
     bordercolor="#666666"
     borderopacity="1.0"
     inkscape:pageopacity="0.0"
     inkscape:pageshadow="2"
     inkscape:zoom="0.45254834"
     inkscape:cx="-275.81263"
     inkscape:cy="-96.60629"
     inkscape:document-units="px"
     inkscape:current-layer="layer1"
     showgrid="false"
     inkscape:object-nodes="false"
     inkscape:snap-smooth-nodes="true"
     inkscape:snap-nodes="false"
     inkscape:window-width="1366"
     inkscape:window-height="706"
     inkscape:window-x="-8"
     inkscape:window-y="-8"
     inkscape:window-maximized="1"
     inkscape:snap-page="true" />
  <metadata
     id="metadata7">
    <rdf:RDF>
      <cc:Work
         rdf:about="">
        <dc:format>image/svg+xml</dc:format>
        <dc:type
           rdf:resource="http://purl.org/dc/dcmitype/StillImage" />
        <dc:title></dc:title>
      </cc:Work>
    </rdf:RDF>
  </metadata>
  <g
     inkscape:label="Layer 1"
     inkscape:groupmode="layer"
     id="layer1"
     transform="translate(0,-552.36218)">
    <path
       style="fill:#000000;stroke:#000000;stroke-width:1.58707511px;stroke-linecap:butt;stroke-linejoin:miter;stroke-opacity:1"
       d="M 123.71594,660.79683 C -57.868838,764.63282 61.774894,888.23077 199.81271,871.1118 369.59411,890.82549 441.51582,747.02681 308.59302,670.02624 259.03316,646.81359 223.03716,649.64759 123.71594,660.79683 z"
       id="path3964"
       inkscape:connector-curvature="0"
       sodipodi:nodetypes="cccc" />
    <path
       style="fill:#000000;stroke:#000000;stroke-width:1.57724679px;stroke-linecap:butt;stroke-linejoin:miter;stroke-opacity:1"
       d="m 81.958491,696.38977 21.977609,-90.10811 41.75747,71.4272 z"
       id="path3966"
       inkscape:connector-curvature="0"
       sodipodi:nodetypes="cccc" />
    <path
       style="fill:#000000;stroke:#000000;stroke-width:1.57724679px;stroke-linecap:butt;stroke-linejoin:miter;stroke-opacity:1"
       d="m 277.55927,686.4998 42.85635,-78.02041 25.27426,129.66783 z"
       id="path3968"
       inkscape:connector-curvature="0"
       sodipodi:nodetypes="cccc" />
    <path
       style="fill:#000000;stroke:#000000;stroke-width:1.57724679px;stroke-linecap:butt;stroke-linejoin:miter;stroke-opacity:1"
       d="m 200.63762,871.1118 c 0,0 -6.59327,103.295 -20.87873,113.1848 -14.28545,9.88998 72.52613,28.5709 93.40487,8.79095 38.31789,-32.65831 -30.35051,-100.0364 -38.46081,-125.27236 -25.06698,-78.66501 -34.06533,3.29661 -34.06533,3.29661 z"
       id="path3970"
       inkscape:connector-curvature="0"
       sodipodi:nodetypes="csccc" />
    <path
       style="fill:#000000;stroke:#000000;stroke-width:1.35806155px;stroke-linecap:butt;stroke-linejoin:miter;stroke-opacity:1"
       d="m 271.87301,969.40124 c 0,0 59.63947,-4.80335 81.0724,-48.03473 21.43295,-43.23154 8.38681,-77.81663 13.04615,-91.26644 4.65935,-13.44966 27.02412,-67.24875 81.07244,-36.50647 54.04826,30.74226 49.38896,75.89506 25.16042,87.42347 -24.22855,11.52841 -66.71259,10.04927 -39.13844,0 26.62134,-9.70212 60.76891,-26.74049 22.36481,-60.52401 -29.5654,-26.00817 -41.01991,-26.24396 -64.29881,-5.76405 -28.11368,24.7336 14.53477,86.24669 -39.13843,134.49767 -49.56736,44.55991 -82.00422,29.78157 -82.00428,29.78157 z"
       id="path3982"
       inkscape:connector-curvature="0"
       sodipodi:nodetypes="csssssssscc" />
    <g
       id="g3043"
       transform="matrix(1.8132152,0,0,1.8808766,-739.65218,-1408.4189)">
      <g
         id="g3045"
         transform="translate(149.76472,-8.8676478)">
        <path
           sodipodi:nodetypes="cccc"
           inkscape:connector-curvature="0"
           id="path3047"
           d="m 384.50076,1159.3507 c 10.09426,-12.278 32.08753,-55.363 69.75971,1.4819 -10.79309,14.5149 -19.91838,22.1203 -33.2189,25.6848 1.11189,-3.8722 -22.55849,-0.2357 -36.54081,-27.1667 z"
           style="fill:#ffffff;stroke:#ffffff;stroke-width:0.6500299px;stroke-linecap:butt;stroke-linejoin:miter;stroke-opacity:1" />
        <path
           transform="matrix(0.56361656,0,0,0.78396485,293.00718,136.06718)"
           d="m 255.69191,1303.1771 c 0,18.0847 -14.66056,32.7453 -32.74529,32.7453 -18.08472,0 -32.74528,-14.6606 -32.74528,-32.7453 0,-18.0847 14.66056,-32.7453 32.74528,-32.7453 18.08473,0 32.74529,14.6606 32.74529,32.7453 z"
           sodipodi:ry="32.745285"
           sodipodi:rx="32.745285"
           sodipodi:cy="1303.1771"
           sodipodi:cx="222.94662"
           id="path3049"
           style="fill:#000000;fill-opacity:1;stroke:#000000;stroke-width:0.89999998;stroke-miterlimit:4;stroke-opacity:1;stroke-dasharray:none"
           sodipodi:type="arc" />
      </g>
    </g>
    <g
       transform="matrix(1.8132152,0,0,1.8808766,-912.00946,-1408.4189)"
       id="g4053">
      <g
         transform="translate(149.76472,-8.8676478)"
         id="g4055">
        <path
           style="fill:#ffffff;stroke:#ffffff;stroke-width:0.6500299px;stroke-linecap:butt;stroke-linejoin:miter;stroke-opacity:1"
           d="m 384.50076,1159.3507 c 10.09426,-12.278 32.08753,-55.363 69.75971,1.4819 -10.79309,14.5149 -19.91838,22.1203 -33.2189,25.6848 1.11189,-3.8722 -22.55849,-0.2357 -36.54081,-27.1667 z"
           id="path4057"
           inkscape:connector-curvature="0"
           sodipodi:nodetypes="cccc" />
        <path
           sodipodi:type="arc"
           style="fill:#000000;fill-opacity:1;stroke:#000000;stroke-width:0.89999998;stroke-miterlimit:4;stroke-opacity:1;stroke-dasharray:none"
           id="path4059"
           sodipodi:cx="222.94662"
           sodipodi:cy="1303.1771"
           sodipodi:rx="32.745285"
           sodipodi:ry="32.745285"
           d="m 255.69191,1303.1771 c 0,18.0847 -14.66056,32.7453 -32.74529,32.7453 -18.08472,0 -32.74528,-14.6606 -32.74528,-32.7453 0,-18.0847 14.66056,-32.7453 32.74528,-32.7453 18.08473,0 32.74529,14.6606 32.74529,32.7453 z"
           transform="matrix(0.56361656,0,0,0.78396485,293.00718,136.06718)" />
      </g>
    </g>
    <path
       style="fill:#000000;fill-opacity:1;stroke:#000000;stroke-width:0.89999998;stroke-miterlimit:4;stroke-opacity:1;stroke-dasharray:none"
       id="path3053"
       d="m 120.76711,254.84757 c 1.90117,-0.65261 3.94736,-0.6772 5.86211,-1.23201 1.46889,-0.48588 3.00152,-0.64192 4.53681,-0.72537 0.25325,-0.008 0.5065,-0.0168 0.75976,-0.0252 0,0 -9.32701,6.84887 -9.32701,6.84887 l 0,0 c -0.24752,0.017 -0.49505,0.034 -0.74257,0.051 -1.49607,0.15177 -2.95824,0.454 -4.40988,0.84677 -1.97051,0.34537 -3.95862,0.64733 -5.84203,1.3545 0,0 9.16281,-7.11855 9.16281,-7.11855 z"
       inkscape:connector-curvature="0"
       transform="translate(0,552.36218)" />
    <path
       style="fill:#000000;fill-opacity:1;stroke:#000000;stroke-width:0.89999998;stroke-miterlimit:4;stroke-opacity:1;stroke-dasharray:none"
       id="path3055"
       d="m 124.82461,252.68434 c 2.09623,-0.0786 4.11003,-0.53944 6.15027,-0.96916 1.30987,-0.67404 2.71131,-0.96952 4.16268,-1.11635 1.26527,-0.14645 2.73884,0.15794 3.82148,-0.66024 0.64263,0.0375 1.41471,1.24572 0.76412,1.63102 -6.15303,3.64397 -6.95766,5.35064 -11.52072,6.22106 -1.5087,0.24321 -3.04005,0.27119 -4.56462,0.29566 -1.52662,0.11291 -3.1068,-0.19932 -4.60083,0.16633 -1.33875,0.38423 -2.727,0.49264 -4.1109,0.56498 -1.00773,0.12952 -2.05085,-0.0646 -3.05606,0.0547 -0.43606,0.0518 -0.85136,0.21568 -1.27733,0.32234 -1.33411,0.40534 -2.77224,0.18527 -4.08964,0.59755 -1.26124,0.50625 -2.66843,0.32383 -3.92981,0.763 -1.30227,0.45064 -2.681137,0.54251 -4.045998,0.61318 -0.96847,0.0315 -0.510529,-0.0447 -1.377659,0.20397 0,0 9.253267,-6.97356 9.253267,-6.97356 l 0,0 c 0.94678,-0.0745 0.46747,-0.0393 1.43795,-0.10542 1.34257,-0.13503 2.65343,-0.39491 3.95192,-0.76389 1.33175,-0.17319 2.64653,-0.40412 3.94969,-0.73253 1.37258,-0.13609 2.74475,-0.27141 4.08871,-0.599 1.45947,-0.226 2.94127,-0.10925 4.41009,-0.25278 1.37256,-0.12997 2.71784,-0.39106 4.07495,-0.62408 1.55257,-0.0526 3.10679,-0.004 4.65964,-0.0568 1.48429,-0.0545 2.98714,-0.11552 4.42115,-0.53914 3.62858,-1.33467 9.72207,-5.72623 -8.52959,5.11713 -0.0711,0.0422 0.19269,-0.0931 0.24627,-0.0301 0.88506,1.04058 0.95869,0.80412 0.69396,1.33416 -1.31135,0.1732 -2.62869,0.22845 -3.94103,0.39177 -1.40347,0.26308 -2.70855,0.80008 -4.08737,1.15244 -2.06334,0.42898 -4.14684,0.65054 -6.233,0.93823 0,0 9.27841,-6.94442 9.27841,-6.94442 z"
       inkscape:connector-curvature="0"
       transform="translate(0,552.36218)" />
    <path
       style="fill:#000000;fill-opacity:1;stroke:#000000;stroke-width:0.89999998;stroke-miterlimit:4;stroke-opacity:1;stroke-dasharray:none"
       id="path3059"
       d="m 293.29635,252.20304 c 1.10136,-0.003 2.18798,-9.6e-4 3.27928,0.15142 0.85373,0.13742 1.7155,0.19915 2.57878,0.22906 0.78948,0.0971 1.53734,-0.0667 2.30818,-0.19883 0.75465,-0.17483 1.55369,-0.0479 2.29616,-0.25347 0.65957,-0.23281 1.37064,-0.18606 2.03695,-0.36781 0.75677,-0.20515 1.53805,-0.27223 2.31792,-0.31348 0.74458,0.0608 1.43215,-0.1082 2.15063,-0.25494 0.73022,-0.0456 1.4246,-0.23416 2.13928,-0.37228 0.77426,-0.0445 1.50497,-0.25222 2.26276,-0.39036 0.39208,0.0177 1.25966,-0.39045 1.56564,0.0336 0.0835,0.11579 0.12655,0.256 0.18982,0.38399 -13.69917,8.20381 -0.049,0.31445 -0.17066,0.3838 -2.92276,1.66659 -3.64951,2.81902 -6.08142,3.12422 -0.83034,0.0789 -1.66619,0.0712 -2.49948,0.0764 -0.8365,0.003 -1.673,0.001 -2.50951,6.8e-4 -0.64168,0.0535 -1.38439,0.13032 -1.97641,0.40504 -0.62242,0.26819 -1.30209,0.31379 -1.96996,0.35246 -0.7685,0.032 -1.53793,0.028 -2.30693,0.0272 -0.78246,-0.002 -1.56491,-0.003 -2.34737,-0.004 -0.65646,0.19533 -1.32894,0.2921 -2.00977,0.34529 -0.76085,0.0463 -1.52351,0.0461 -2.28547,0.0478 -0.78171,2.2e-4 -1.56342,-0.001 -2.34514,-0.002 -0.78159,-7.3e-4 -1.56318,-8.4e-4 -2.34477,-9.2e-4 -0.78127,-5e-5 -1.56253,-3e-5 -2.3438,-2e-5 -0.78124,10e-6 -1.56249,10e-6 -2.34373,10e-6 -0.78125,0 -1.5625,0 -2.34375,0 -0.94719,-0.006 -1.83751,-0.39249 -2.76299,-0.5743 -1.05732,-0.1384 -2.10191,-0.34719 -3.1611,-0.47563 -1.15881,-0.2702 -2.34039,-0.42356 -3.51546,-0.60551 -1.21427,-0.14643 -2.42726,-0.20637 -3.60102,-0.57009 -0.99645,-0.33145 -2.04729,-0.41807 -3.08874,-0.4809 -0.8755,-0.14219 -1.69877,-0.46664 -2.56706,-0.64348 -0.79142,-0.14201 -1.59685,-0.1581 -2.3985,-0.1692 -0.79551,-0.006 -1.59102,0.001 -2.38653,-0.002 -0.16551,-9.9e-4 -0.33102,-0.002 -0.49653,-0.003 0,0 4.66033,-3.38712 4.66033,-3.38712 l 0,0 c 0.16887,-0.002 0.33774,-0.003 0.50662,-0.005 0.80064,-0.006 1.6015,-0.008 2.40202,0.009 0.82468,0.028 1.65194,0.0772 2.4581,0.26688 0.83286,0.20505 1.64694,0.50209 2.50584,0.5836 1.06743,0.097 2.13442,0.23502 3.15708,0.57139 1.15985,0.28645 2.34438,0.37848 3.52628,0.538 1.18152,0.17913 2.36706,0.33061 3.53747,0.57612 1.06536,0.1543 2.12923,0.32455 3.18955,0.50897 0.89766,0.20238 1.77876,0.52883 2.71311,0.46244 0.78125,0 1.5625,0 2.34375,-1e-5 0.78124,0 1.56249,0 2.34373,-1e-5 0.78128,0 1.56256,-2e-5 2.34384,1.1e-4 0.78168,1.7e-4 1.56336,4.6e-4 2.34504,0.001 0.78105,9e-4 1.56212,0.003 2.34316,-0.001 0.75305,-0.007 1.50782,-0.0146 2.25722,-0.097 0.68213,-0.0888 1.35089,-0.27636 2.04002,-0.29243 0.78222,0.001 1.56445,0.003 2.34668,0.003 0.76105,-0.003 1.52365,-0.002 2.28228,-0.0706 0.6537,-0.0769 1.28486,-0.22287 1.90014,-0.46087 0.68483,-0.13294 1.36624,-0.30277 2.07041,-0.25074 0.83257,0.002 1.66516,0.006 2.49772,-3.8e-4 0.82092,-0.0112 1.64931,-0.013 2.45779,-0.17323 0.2512,-0.0649 0.34704,-0.0785 0.58139,-0.18066 0.0791,-0.0345 0.3049,-0.16172 0.23026,-0.11839 -1.59412,0.92545 -6.42687,3.61052 -4.78899,2.76492 3.5881,-1.85243 9.89645,-5.97195 0.35641,0.10015 0.0685,0.0922 0.15238,0.17463 0.20537,0.27647 0.0365,0.0701 -0.1538,0.0381 -0.23224,0.0477 -0.36479,0.0446 -0.73014,0.0867 -1.08931,0.1678 -0.75075,0.16291 -1.50617,0.26188 -2.26259,0.39421 -0.71261,0.1549 -1.43145,0.24676 -2.14825,0.37802 -0.72365,0.14704 -1.45046,0.15406 -2.18657,0.18768 -0.76837,0.0686 -1.52624,0.19434 -2.27658,0.37518 -0.68859,0.0944 -1.37163,0.20569 -2.05017,0.35756 -0.76572,0.0604 -1.53465,0.0979 -2.29048,0.24603 -0.79106,0.13053 -1.5796,0.1674 -2.38058,0.0989 -0.86697,-0.051 -1.72905,-0.14703 -2.58755,-0.27921 -1.08505,-0.12365 -2.17575,-0.0905 -3.26614,-0.071 0,0 4.68854,-3.40642 4.68854,-3.40642 z"
       inkscape:connector-curvature="0"
       transform="translate(0,552.36218)" />
  </g>
</svg>
